<mxfile host="Electron" modified="2023-10-03T10:50:10.481Z" agent="Mozilla/5.0 (Macintosh; Intel Mac OS X 10_15_7) AppleWebKit/537.36 (KHTML, like Gecko) draw.io/22.0.1 Chrome/114.0.5735.289 Electron/25.8.4 Safari/537.36" etag="tB-_dwDBtk4-xiF6jW7s" version="22.0.1" type="device" pages="9">
  <diagram id="7uA0Vh1GOFlPNrEzXj1L" name="Example 1">
    <mxGraphModel dx="1114" dy="999" grid="1" gridSize="10" guides="1" tooltips="1" connect="1" arrows="1" fold="1" page="1" pageScale="1" pageWidth="500" pageHeight="400" math="0" shadow="0">
      <root>
        <mxCell id="0" />
        <mxCell id="1" parent="0" />
        <mxCell id="6m6qvGZaZ7tRiWoENHbd-1" value="BankAccount" style="swimlane;fontStyle=1;align=center;verticalAlign=top;childLayout=stackLayout;horizontal=1;startSize=26;horizontalStack=0;resizeParent=1;resizeParentMax=0;resizeLast=0;collapsible=1;marginBottom=0;fillColor=none;" parent="1" vertex="1">
          <mxGeometry x="140" y="118" width="220" height="164" as="geometry" />
        </mxCell>
        <mxCell id="6m6qvGZaZ7tRiWoENHbd-2" value="+ AccountNumber { get; }: string" style="text;strokeColor=none;fillColor=none;align=left;verticalAlign=top;spacingLeft=4;spacingRight=4;overflow=hidden;rotatable=0;points=[[0,0.5],[1,0.5]];portConstraint=eastwest;" parent="6m6qvGZaZ7tRiWoENHbd-1" vertex="1">
          <mxGeometry y="26" width="220" height="26" as="geometry" />
        </mxCell>
        <mxCell id="6m6qvGZaZ7tRiWoENHbd-5" value="+ Balance { get; private set; }: decimal" style="text;strokeColor=none;fillColor=none;align=left;verticalAlign=top;spacingLeft=4;spacingRight=4;overflow=hidden;rotatable=0;points=[[0,0.5],[1,0.5]];portConstraint=eastwest;" parent="6m6qvGZaZ7tRiWoENHbd-1" vertex="1">
          <mxGeometry y="52" width="220" height="26" as="geometry" />
        </mxCell>
        <mxCell id="6m6qvGZaZ7tRiWoENHbd-3" value="" style="line;strokeWidth=1;fillColor=none;align=left;verticalAlign=middle;spacingTop=-1;spacingLeft=3;spacingRight=3;rotatable=0;labelPosition=right;points=[];portConstraint=eastwest;" parent="6m6qvGZaZ7tRiWoENHbd-1" vertex="1">
          <mxGeometry y="78" width="220" height="8" as="geometry" />
        </mxCell>
        <mxCell id="6m6qvGZaZ7tRiWoENHbd-4" value="+ BankAccount(string accountNumber)" style="text;strokeColor=none;fillColor=none;align=left;verticalAlign=top;spacingLeft=4;spacingRight=4;overflow=hidden;rotatable=0;points=[[0,0.5],[1,0.5]];portConstraint=eastwest;" parent="6m6qvGZaZ7tRiWoENHbd-1" vertex="1">
          <mxGeometry y="86" width="220" height="26" as="geometry" />
        </mxCell>
        <mxCell id="6m6qvGZaZ7tRiWoENHbd-7" value="+ Deposit(decimal amount): void" style="text;strokeColor=none;fillColor=none;align=left;verticalAlign=top;spacingLeft=4;spacingRight=4;overflow=hidden;rotatable=0;points=[[0,0.5],[1,0.5]];portConstraint=eastwest;" parent="6m6qvGZaZ7tRiWoENHbd-1" vertex="1">
          <mxGeometry y="112" width="220" height="26" as="geometry" />
        </mxCell>
        <mxCell id="6m6qvGZaZ7tRiWoENHbd-8" value="+ Withdraw(decimal amount): void" style="text;strokeColor=none;fillColor=none;align=left;verticalAlign=top;spacingLeft=4;spacingRight=4;overflow=hidden;rotatable=0;points=[[0,0.5],[1,0.5]];portConstraint=eastwest;" parent="6m6qvGZaZ7tRiWoENHbd-1" vertex="1">
          <mxGeometry y="138" width="220" height="26" as="geometry" />
        </mxCell>
      </root>
    </mxGraphModel>
  </diagram>
  <diagram name="Example 2" id="RYmqedIAceYX_lltNuP3">
    <mxGraphModel dx="1114" dy="999" grid="1" gridSize="10" guides="1" tooltips="1" connect="1" arrows="1" fold="1" page="1" pageScale="1" pageWidth="1000" pageHeight="400" math="0" shadow="0">
      <root>
        <mxCell id="SNGihYCu7hqa4u0orSet-0" />
        <mxCell id="SNGihYCu7hqa4u0orSet-1" parent="SNGihYCu7hqa4u0orSet-0" />
        <mxCell id="NrS7wcULOiyC2797iTt_-2" style="edgeStyle=orthogonalEdgeStyle;rounded=0;orthogonalLoop=1;jettySize=auto;html=1;entryX=0.006;entryY=0.786;entryDx=0;entryDy=0;entryPerimeter=0;endArrow=classic;endFill=1;" parent="SNGihYCu7hqa4u0orSet-1" source="SNGihYCu7hqa4u0orSet-2" target="SNGihYCu7hqa4u0orSet-14" edge="1">
          <mxGeometry relative="1" as="geometry" />
        </mxCell>
        <mxCell id="SNGihYCu7hqa4u0orSet-2" value="BankAccount" style="swimlane;fontStyle=1;align=center;verticalAlign=top;childLayout=stackLayout;horizontal=1;startSize=26;horizontalStack=0;resizeParent=1;resizeParentMax=0;resizeLast=0;collapsible=1;marginBottom=0;fillColor=none;" parent="SNGihYCu7hqa4u0orSet-1" vertex="1">
          <mxGeometry x="30" y="16" width="440" height="216" as="geometry" />
        </mxCell>
        <mxCell id="SNGihYCu7hqa4u0orSet-3" value="+ AccountNumber { get; }: string" style="text;strokeColor=none;fillColor=none;align=left;verticalAlign=top;spacingLeft=4;spacingRight=4;overflow=hidden;rotatable=0;points=[[0,0.5],[1,0.5]];portConstraint=eastwest;" parent="SNGihYCu7hqa4u0orSet-2" vertex="1">
          <mxGeometry y="26" width="440" height="26" as="geometry" />
        </mxCell>
        <mxCell id="SNGihYCu7hqa4u0orSet-4" value="+ Balance { get; private set; }: decimal" style="text;strokeColor=none;fillColor=none;align=left;verticalAlign=top;spacingLeft=4;spacingRight=4;overflow=hidden;rotatable=0;points=[[0,0.5],[1,0.5]];portConstraint=eastwest;" parent="SNGihYCu7hqa4u0orSet-2" vertex="1">
          <mxGeometry y="52" width="440" height="26" as="geometry" />
        </mxCell>
        <mxCell id="NrS7wcULOiyC2797iTt_-0" value="+ NumberOfTransactions { get; } : int" style="text;strokeColor=none;fillColor=none;align=left;verticalAlign=top;spacingLeft=4;spacingRight=4;overflow=hidden;rotatable=0;points=[[0,0.5],[1,0.5]];portConstraint=eastwest;" parent="SNGihYCu7hqa4u0orSet-2" vertex="1">
          <mxGeometry y="78" width="440" height="26" as="geometry" />
        </mxCell>
        <mxCell id="SNGihYCu7hqa4u0orSet-5" value="" style="line;strokeWidth=1;fillColor=none;align=left;verticalAlign=middle;spacingTop=-1;spacingLeft=3;spacingRight=3;rotatable=0;labelPosition=right;points=[];portConstraint=eastwest;" parent="SNGihYCu7hqa4u0orSet-2" vertex="1">
          <mxGeometry y="104" width="440" height="8" as="geometry" />
        </mxCell>
        <mxCell id="SNGihYCu7hqa4u0orSet-6" value="+ BankAccount(string accountNumber)" style="text;strokeColor=none;fillColor=none;align=left;verticalAlign=top;spacingLeft=4;spacingRight=4;overflow=hidden;rotatable=0;points=[[0,0.5],[1,0.5]];portConstraint=eastwest;" parent="SNGihYCu7hqa4u0orSet-2" vertex="1">
          <mxGeometry y="112" width="440" height="26" as="geometry" />
        </mxCell>
        <mxCell id="SNGihYCu7hqa4u0orSet-7" value="+ Deposit(decimal amount): void" style="text;strokeColor=none;fillColor=none;align=left;verticalAlign=top;spacingLeft=4;spacingRight=4;overflow=hidden;rotatable=0;points=[[0,0.5],[1,0.5]];portConstraint=eastwest;" parent="SNGihYCu7hqa4u0orSet-2" vertex="1">
          <mxGeometry y="138" width="440" height="26" as="geometry" />
        </mxCell>
        <mxCell id="SNGihYCu7hqa4u0orSet-8" value="+ Withdraw(decimal amount): void" style="text;strokeColor=none;fillColor=none;align=left;verticalAlign=top;spacingLeft=4;spacingRight=4;overflow=hidden;rotatable=0;points=[[0,0.5],[1,0.5]];portConstraint=eastwest;" parent="SNGihYCu7hqa4u0orSet-2" vertex="1">
          <mxGeometry y="164" width="440" height="26" as="geometry" />
        </mxCell>
        <mxCell id="NrS7wcULOiyC2797iTt_-1" value="+ GetTransactions(DateTime? from, DateTime? till): IEnumerable&lt;Transaction&gt;" style="text;strokeColor=none;fillColor=none;align=left;verticalAlign=top;spacingLeft=4;spacingRight=4;overflow=hidden;rotatable=0;points=[[0,0.5],[1,0.5]];portConstraint=eastwest;" parent="SNGihYCu7hqa4u0orSet-2" vertex="1">
          <mxGeometry y="190" width="440" height="26" as="geometry" />
        </mxCell>
        <mxCell id="SNGihYCu7hqa4u0orSet-9" value="Transaction" style="swimlane;fontStyle=1;align=center;verticalAlign=top;childLayout=stackLayout;horizontal=1;startSize=26;horizontalStack=0;resizeParent=1;resizeParentMax=0;resizeLast=0;collapsible=1;marginBottom=0;fillColor=none;" parent="SNGihYCu7hqa4u0orSet-1" vertex="1">
          <mxGeometry x="690" y="25" width="300" height="190" as="geometry" />
        </mxCell>
        <mxCell id="SNGihYCu7hqa4u0orSet-10" value="+ Amount { get; } : decimal" style="text;strokeColor=none;fillColor=none;align=left;verticalAlign=top;spacingLeft=4;spacingRight=4;overflow=hidden;rotatable=0;points=[[0,0.5],[1,0.5]];portConstraint=eastwest;" parent="SNGihYCu7hqa4u0orSet-9" vertex="1">
          <mxGeometry y="26" width="300" height="26" as="geometry" />
        </mxCell>
        <mxCell id="SNGihYCu7hqa4u0orSet-13" value="+ DateOfTrans { get; } : DateTime" style="text;strokeColor=none;fillColor=none;align=left;verticalAlign=top;spacingLeft=4;spacingRight=4;overflow=hidden;rotatable=0;points=[[0,0.5],[1,0.5]];portConstraint=eastwest;" parent="SNGihYCu7hqa4u0orSet-9" vertex="1">
          <mxGeometry y="52" width="300" height="26" as="geometry" />
        </mxCell>
        <mxCell id="SNGihYCu7hqa4u0orSet-14" value="+ IsDeposit { get; } : bool" style="text;strokeColor=none;fillColor=none;align=left;verticalAlign=top;spacingLeft=4;spacingRight=4;overflow=hidden;rotatable=0;points=[[0,0.5],[1,0.5]];portConstraint=eastwest;" parent="SNGihYCu7hqa4u0orSet-9" vertex="1">
          <mxGeometry y="78" width="300" height="26" as="geometry" />
        </mxCell>
        <mxCell id="SNGihYCu7hqa4u0orSet-15" value="+ IsWithdraw { get; } : bool" style="text;strokeColor=none;fillColor=none;align=left;verticalAlign=top;spacingLeft=4;spacingRight=4;overflow=hidden;rotatable=0;points=[[0,0.5],[1,0.5]];portConstraint=eastwest;" parent="SNGihYCu7hqa4u0orSet-9" vertex="1">
          <mxGeometry y="104" width="300" height="26" as="geometry" />
        </mxCell>
        <mxCell id="SNGihYCu7hqa4u0orSet-16" value="+ TransactionType { get; } : TransactionType" style="text;strokeColor=#d6b656;fillColor=#fff2cc;align=left;verticalAlign=top;spacingLeft=4;spacingRight=4;overflow=hidden;rotatable=0;points=[[0,0.5],[1,0.5]];portConstraint=eastwest;" parent="SNGihYCu7hqa4u0orSet-9" vertex="1">
          <mxGeometry y="130" width="300" height="26" as="geometry" />
        </mxCell>
        <mxCell id="SNGihYCu7hqa4u0orSet-11" value="" style="line;strokeWidth=1;fillColor=none;align=left;verticalAlign=middle;spacingTop=-1;spacingLeft=3;spacingRight=3;rotatable=0;labelPosition=right;points=[];portConstraint=eastwest;" parent="SNGihYCu7hqa4u0orSet-9" vertex="1">
          <mxGeometry y="156" width="300" height="8" as="geometry" />
        </mxCell>
        <mxCell id="SNGihYCu7hqa4u0orSet-12" value="+ Transaction(decimal amount, TransactionType type)" style="text;strokeColor=none;fillColor=none;align=left;verticalAlign=top;spacingLeft=4;spacingRight=4;overflow=hidden;rotatable=0;points=[[0,0.5],[1,0.5]];portConstraint=eastwest;" parent="SNGihYCu7hqa4u0orSet-9" vertex="1">
          <mxGeometry y="164" width="300" height="26" as="geometry" />
        </mxCell>
        <mxCell id="SNGihYCu7hqa4u0orSet-17" value="&lt;&lt;enum&gt;&gt;&#xa;TransactionType" style="swimlane;fontStyle=1;childLayout=stackLayout;horizontal=1;startSize=26;fillColor=none;horizontalStack=0;resizeParent=1;resizeParentMax=0;resizeLast=0;collapsible=1;marginBottom=0;" parent="SNGihYCu7hqa4u0orSet-1" vertex="1">
          <mxGeometry x="500" y="280" width="140" height="78" as="geometry" />
        </mxCell>
        <mxCell id="SNGihYCu7hqa4u0orSet-19" value="Deposit" style="text;strokeColor=none;fillColor=none;align=left;verticalAlign=top;spacingLeft=4;spacingRight=4;overflow=hidden;rotatable=0;points=[[0,0.5],[1,0.5]];portConstraint=eastwest;" parent="SNGihYCu7hqa4u0orSet-17" vertex="1">
          <mxGeometry y="26" width="140" height="26" as="geometry" />
        </mxCell>
        <mxCell id="SNGihYCu7hqa4u0orSet-18" value="Withdraw" style="text;strokeColor=none;fillColor=none;align=left;verticalAlign=top;spacingLeft=4;spacingRight=4;overflow=hidden;rotatable=0;points=[[0,0.5],[1,0.5]];portConstraint=eastwest;" parent="SNGihYCu7hqa4u0orSet-17" vertex="1">
          <mxGeometry y="52" width="140" height="26" as="geometry" />
        </mxCell>
        <mxCell id="SNGihYCu7hqa4u0orSet-23" value="_transactions" style="text;html=1;align=center;verticalAlign=middle;resizable=0;points=[];autosize=1;strokeColor=#d6b656;fillColor=#fff2cc;" parent="SNGihYCu7hqa4u0orSet-1" vertex="1">
          <mxGeometry x="590" y="130" width="90" height="20" as="geometry" />
        </mxCell>
      </root>
    </mxGraphModel>
  </diagram>
  <diagram name="Example 3" id="uiCRaH1YoMDo7JPadbUW">
    <mxGraphModel dx="1114" dy="999" grid="1" gridSize="10" guides="1" tooltips="1" connect="1" arrows="1" fold="1" page="1" pageScale="1" pageWidth="1000" pageHeight="800" math="0" shadow="0">
      <root>
        <mxCell id="TK-_9FEfK2PpZGBuwelb-0" />
        <mxCell id="TK-_9FEfK2PpZGBuwelb-1" parent="TK-_9FEfK2PpZGBuwelb-0" />
        <mxCell id="TK-_9FEfK2PpZGBuwelb-2" style="edgeStyle=orthogonalEdgeStyle;rounded=0;orthogonalLoop=1;jettySize=auto;html=1;entryX=0.006;entryY=0.786;entryDx=0;entryDy=0;entryPerimeter=0;endArrow=classic;endFill=1;" parent="TK-_9FEfK2PpZGBuwelb-1" source="TK-_9FEfK2PpZGBuwelb-3" target="TK-_9FEfK2PpZGBuwelb-15" edge="1">
          <mxGeometry relative="1" as="geometry" />
        </mxCell>
        <mxCell id="TK-_9FEfK2PpZGBuwelb-30" style="edgeStyle=orthogonalEdgeStyle;rounded=0;orthogonalLoop=1;jettySize=auto;html=1;entryX=0.5;entryY=0;entryDx=0;entryDy=0;endArrow=none;endFill=0;startArrow=block;startFill=0;" parent="TK-_9FEfK2PpZGBuwelb-1" source="TK-_9FEfK2PpZGBuwelb-3" target="TK-_9FEfK2PpZGBuwelb-24" edge="1">
          <mxGeometry relative="1" as="geometry" />
        </mxCell>
        <mxCell id="TK-_9FEfK2PpZGBuwelb-3" value="BankAccount" style="swimlane;fontStyle=1;align=center;verticalAlign=top;childLayout=stackLayout;horizontal=1;startSize=26;horizontalStack=0;resizeParent=1;resizeParentMax=0;resizeLast=0;collapsible=1;marginBottom=0;fillColor=none;" parent="TK-_9FEfK2PpZGBuwelb-1" vertex="1">
          <mxGeometry x="30" y="16" width="440" height="216" as="geometry" />
        </mxCell>
        <mxCell id="TK-_9FEfK2PpZGBuwelb-4" value="+ AccountNumber { get; }: string" style="text;strokeColor=none;fillColor=none;align=left;verticalAlign=top;spacingLeft=4;spacingRight=4;overflow=hidden;rotatable=0;points=[[0,0.5],[1,0.5]];portConstraint=eastwest;" parent="TK-_9FEfK2PpZGBuwelb-3" vertex="1">
          <mxGeometry y="26" width="440" height="26" as="geometry" />
        </mxCell>
        <mxCell id="TK-_9FEfK2PpZGBuwelb-5" value="+ Balance { get; private set; }: decimal" style="text;strokeColor=none;fillColor=none;align=left;verticalAlign=top;spacingLeft=4;spacingRight=4;overflow=hidden;rotatable=0;points=[[0,0.5],[1,0.5]];portConstraint=eastwest;" parent="TK-_9FEfK2PpZGBuwelb-3" vertex="1">
          <mxGeometry y="52" width="440" height="26" as="geometry" />
        </mxCell>
        <mxCell id="TK-_9FEfK2PpZGBuwelb-6" value="+ NumberOfTransactions { get; } : int" style="text;strokeColor=none;fillColor=none;align=left;verticalAlign=top;spacingLeft=4;spacingRight=4;overflow=hidden;rotatable=0;points=[[0,0.5],[1,0.5]];portConstraint=eastwest;" parent="TK-_9FEfK2PpZGBuwelb-3" vertex="1">
          <mxGeometry y="78" width="440" height="26" as="geometry" />
        </mxCell>
        <mxCell id="TK-_9FEfK2PpZGBuwelb-7" value="" style="line;strokeWidth=1;fillColor=none;align=left;verticalAlign=middle;spacingTop=-1;spacingLeft=3;spacingRight=3;rotatable=0;labelPosition=right;points=[];portConstraint=eastwest;" parent="TK-_9FEfK2PpZGBuwelb-3" vertex="1">
          <mxGeometry y="104" width="440" height="8" as="geometry" />
        </mxCell>
        <mxCell id="TK-_9FEfK2PpZGBuwelb-8" value="+ BankAccount(string accountNumber)" style="text;strokeColor=none;fillColor=none;align=left;verticalAlign=top;spacingLeft=4;spacingRight=4;overflow=hidden;rotatable=0;points=[[0,0.5],[1,0.5]];portConstraint=eastwest;" parent="TK-_9FEfK2PpZGBuwelb-3" vertex="1">
          <mxGeometry y="112" width="440" height="26" as="geometry" />
        </mxCell>
        <mxCell id="TK-_9FEfK2PpZGBuwelb-9" value="+ Deposit(decimal amount): void" style="text;strokeColor=none;fillColor=none;align=left;verticalAlign=top;spacingLeft=4;spacingRight=4;overflow=hidden;rotatable=0;points=[[0,0.5],[1,0.5]];portConstraint=eastwest;" parent="TK-_9FEfK2PpZGBuwelb-3" vertex="1">
          <mxGeometry y="138" width="440" height="26" as="geometry" />
        </mxCell>
        <mxCell id="TK-_9FEfK2PpZGBuwelb-10" value="+ Withdraw(decimal amount): void" style="text;strokeColor=none;fillColor=none;align=left;verticalAlign=top;spacingLeft=4;spacingRight=4;overflow=hidden;rotatable=0;points=[[0,0.5],[1,0.5]];portConstraint=eastwest;" parent="TK-_9FEfK2PpZGBuwelb-3" vertex="1">
          <mxGeometry y="164" width="440" height="26" as="geometry" />
        </mxCell>
        <mxCell id="TK-_9FEfK2PpZGBuwelb-11" value="+ GetTransactions(DateTime? from, DateTime? till): IEnumerable&lt;Transaction&gt;" style="text;strokeColor=none;fillColor=none;align=left;verticalAlign=top;spacingLeft=4;spacingRight=4;overflow=hidden;rotatable=0;points=[[0,0.5],[1,0.5]];portConstraint=eastwest;" parent="TK-_9FEfK2PpZGBuwelb-3" vertex="1">
          <mxGeometry y="190" width="440" height="26" as="geometry" />
        </mxCell>
        <mxCell id="TK-_9FEfK2PpZGBuwelb-12" value="Transaction" style="swimlane;fontStyle=1;align=center;verticalAlign=top;childLayout=stackLayout;horizontal=1;startSize=26;horizontalStack=0;resizeParent=1;resizeParentMax=0;resizeLast=0;collapsible=1;marginBottom=0;fillColor=none;" parent="TK-_9FEfK2PpZGBuwelb-1" vertex="1">
          <mxGeometry x="690" y="25" width="300" height="190" as="geometry" />
        </mxCell>
        <mxCell id="TK-_9FEfK2PpZGBuwelb-13" value="+ Amount { get; } : decimal" style="text;strokeColor=none;fillColor=none;align=left;verticalAlign=top;spacingLeft=4;spacingRight=4;overflow=hidden;rotatable=0;points=[[0,0.5],[1,0.5]];portConstraint=eastwest;" parent="TK-_9FEfK2PpZGBuwelb-12" vertex="1">
          <mxGeometry y="26" width="300" height="26" as="geometry" />
        </mxCell>
        <mxCell id="TK-_9FEfK2PpZGBuwelb-14" value="+ DateOfTrans { get; } : DateTime" style="text;strokeColor=none;fillColor=none;align=left;verticalAlign=top;spacingLeft=4;spacingRight=4;overflow=hidden;rotatable=0;points=[[0,0.5],[1,0.5]];portConstraint=eastwest;" parent="TK-_9FEfK2PpZGBuwelb-12" vertex="1">
          <mxGeometry y="52" width="300" height="26" as="geometry" />
        </mxCell>
        <mxCell id="TK-_9FEfK2PpZGBuwelb-15" value="+ IsDeposit { get; } : bool" style="text;strokeColor=none;fillColor=none;align=left;verticalAlign=top;spacingLeft=4;spacingRight=4;overflow=hidden;rotatable=0;points=[[0,0.5],[1,0.5]];portConstraint=eastwest;" parent="TK-_9FEfK2PpZGBuwelb-12" vertex="1">
          <mxGeometry y="78" width="300" height="26" as="geometry" />
        </mxCell>
        <mxCell id="TK-_9FEfK2PpZGBuwelb-16" value="+ IsWithdraw { get; } : bool" style="text;strokeColor=none;fillColor=none;align=left;verticalAlign=top;spacingLeft=4;spacingRight=4;overflow=hidden;rotatable=0;points=[[0,0.5],[1,0.5]];portConstraint=eastwest;" parent="TK-_9FEfK2PpZGBuwelb-12" vertex="1">
          <mxGeometry y="104" width="300" height="26" as="geometry" />
        </mxCell>
        <mxCell id="TK-_9FEfK2PpZGBuwelb-17" value="+ TransactionType { get; } : TransactionType" style="text;align=left;verticalAlign=top;spacingLeft=4;spacingRight=4;overflow=hidden;rotatable=0;points=[[0,0.5],[1,0.5]];portConstraint=eastwest;" parent="TK-_9FEfK2PpZGBuwelb-12" vertex="1">
          <mxGeometry y="130" width="300" height="26" as="geometry" />
        </mxCell>
        <mxCell id="TK-_9FEfK2PpZGBuwelb-18" value="" style="line;strokeWidth=1;fillColor=none;align=left;verticalAlign=middle;spacingTop=-1;spacingLeft=3;spacingRight=3;rotatable=0;labelPosition=right;points=[];portConstraint=eastwest;" parent="TK-_9FEfK2PpZGBuwelb-12" vertex="1">
          <mxGeometry y="156" width="300" height="8" as="geometry" />
        </mxCell>
        <mxCell id="TK-_9FEfK2PpZGBuwelb-19" value="+ Transaction(decimal amount, TransactionType type)" style="text;strokeColor=none;fillColor=none;align=left;verticalAlign=top;spacingLeft=4;spacingRight=4;overflow=hidden;rotatable=0;points=[[0,0.5],[1,0.5]];portConstraint=eastwest;" parent="TK-_9FEfK2PpZGBuwelb-12" vertex="1">
          <mxGeometry y="164" width="300" height="26" as="geometry" />
        </mxCell>
        <mxCell id="TK-_9FEfK2PpZGBuwelb-20" value="&lt;&lt;enum&gt;&gt;&#xa;TransactionType" style="swimlane;fontStyle=1;childLayout=stackLayout;horizontal=1;startSize=26;fillColor=none;horizontalStack=0;resizeParent=1;resizeParentMax=0;resizeLast=0;collapsible=1;marginBottom=0;" parent="TK-_9FEfK2PpZGBuwelb-1" vertex="1">
          <mxGeometry x="540" y="387" width="140" height="78" as="geometry" />
        </mxCell>
        <mxCell id="TK-_9FEfK2PpZGBuwelb-21" value="Deposit" style="text;strokeColor=none;fillColor=none;align=left;verticalAlign=top;spacingLeft=4;spacingRight=4;overflow=hidden;rotatable=0;points=[[0,0.5],[1,0.5]];portConstraint=eastwest;" parent="TK-_9FEfK2PpZGBuwelb-20" vertex="1">
          <mxGeometry y="26" width="140" height="26" as="geometry" />
        </mxCell>
        <mxCell id="TK-_9FEfK2PpZGBuwelb-22" value="Withdraw" style="text;strokeColor=none;fillColor=none;align=left;verticalAlign=top;spacingLeft=4;spacingRight=4;overflow=hidden;rotatable=0;points=[[0,0.5],[1,0.5]];portConstraint=eastwest;" parent="TK-_9FEfK2PpZGBuwelb-20" vertex="1">
          <mxGeometry y="52" width="140" height="26" as="geometry" />
        </mxCell>
        <mxCell id="TK-_9FEfK2PpZGBuwelb-23" value="_transactions" style="text;html=1;align=center;verticalAlign=middle;resizable=0;points=[];autosize=1;" parent="TK-_9FEfK2PpZGBuwelb-1" vertex="1">
          <mxGeometry x="590" y="130" width="90" height="20" as="geometry" />
        </mxCell>
        <mxCell id="TK-_9FEfK2PpZGBuwelb-24" value="SavingsAccount" style="swimlane;fontStyle=1;align=center;verticalAlign=top;childLayout=stackLayout;horizontal=1;startSize=26;horizontalStack=0;resizeParent=1;resizeParentMax=0;resizeLast=0;collapsible=1;marginBottom=0;fillColor=none;" parent="TK-_9FEfK2PpZGBuwelb-1" vertex="1">
          <mxGeometry x="30" y="344" width="440" height="164" as="geometry" />
        </mxCell>
        <mxCell id="TK-_9FEfK2PpZGBuwelb-25" value="# WithdrawCost : decimal = 0.25M" style="text;strokeColor=none;fillColor=none;align=left;verticalAlign=top;spacingLeft=4;spacingRight=4;overflow=hidden;rotatable=0;points=[[0,0.5],[1,0.5]];portConstraint=eastwest;" parent="TK-_9FEfK2PpZGBuwelb-24" vertex="1">
          <mxGeometry y="26" width="440" height="26" as="geometry" />
        </mxCell>
        <mxCell id="TK-_9FEfK2PpZGBuwelb-31" value="+ InterestRate { get; } : decimal" style="text;strokeColor=none;fillColor=none;align=left;verticalAlign=top;spacingLeft=4;spacingRight=4;overflow=hidden;rotatable=0;points=[[0,0.5],[1,0.5]];portConstraint=eastwest;" parent="TK-_9FEfK2PpZGBuwelb-24" vertex="1">
          <mxGeometry y="52" width="440" height="26" as="geometry" />
        </mxCell>
        <mxCell id="TK-_9FEfK2PpZGBuwelb-26" value="" style="line;strokeWidth=1;fillColor=none;align=left;verticalAlign=middle;spacingTop=-1;spacingLeft=3;spacingRight=3;rotatable=0;labelPosition=right;points=[];portConstraint=eastwest;" parent="TK-_9FEfK2PpZGBuwelb-24" vertex="1">
          <mxGeometry y="78" width="440" height="8" as="geometry" />
        </mxCell>
        <mxCell id="TK-_9FEfK2PpZGBuwelb-27" value="+ SavingsAccount(string accountNumber, decimal interestRate)&#xa;" style="text;strokeColor=none;fillColor=none;align=left;verticalAlign=top;spacingLeft=4;spacingRight=4;overflow=hidden;rotatable=0;points=[[0,0.5],[1,0.5]];portConstraint=eastwest;" parent="TK-_9FEfK2PpZGBuwelb-24" vertex="1">
          <mxGeometry y="86" width="440" height="26" as="geometry" />
        </mxCell>
        <mxCell id="TK-_9FEfK2PpZGBuwelb-32" value="+ AddInterest(): void" style="text;strokeColor=none;fillColor=none;align=left;verticalAlign=top;spacingLeft=4;spacingRight=4;overflow=hidden;rotatable=0;points=[[0,0.5],[1,0.5]];portConstraint=eastwest;" parent="TK-_9FEfK2PpZGBuwelb-24" vertex="1">
          <mxGeometry y="112" width="440" height="26" as="geometry" />
        </mxCell>
        <mxCell id="TK-_9FEfK2PpZGBuwelb-33" value="+ Withdraw(decimal amount) : void" style="text;strokeColor=none;fillColor=none;align=left;verticalAlign=top;spacingLeft=4;spacingRight=4;overflow=hidden;rotatable=0;points=[[0,0.5],[1,0.5]];portConstraint=eastwest;" parent="TK-_9FEfK2PpZGBuwelb-24" vertex="1">
          <mxGeometry y="138" width="440" height="26" as="geometry" />
        </mxCell>
      </root>
    </mxGraphModel>
  </diagram>
  <diagram name="Example 4" id="ex_74P5IoQjZMTPwJ17B">
    <mxGraphModel dx="1114" dy="999" grid="1" gridSize="10" guides="1" tooltips="1" connect="1" arrows="1" fold="1" page="1" pageScale="1" pageWidth="1000" pageHeight="800" math="0" shadow="0">
      <root>
        <mxCell id="DrAdFIftRKYHWb1Ylylo-0" />
        <mxCell id="DrAdFIftRKYHWb1Ylylo-1" parent="DrAdFIftRKYHWb1Ylylo-0" />
        <mxCell id="DrAdFIftRKYHWb1Ylylo-3" style="edgeStyle=orthogonalEdgeStyle;rounded=0;orthogonalLoop=1;jettySize=auto;html=1;entryX=0.5;entryY=0;entryDx=0;entryDy=0;endArrow=none;endFill=0;startArrow=block;startFill=0;" parent="DrAdFIftRKYHWb1Ylylo-1" source="DrAdFIftRKYHWb1Ylylo-4" target="DrAdFIftRKYHWb1Ylylo-25" edge="1">
          <mxGeometry relative="1" as="geometry" />
        </mxCell>
        <mxCell id="DrAdFIftRKYHWb1Ylylo-33" style="edgeStyle=orthogonalEdgeStyle;rounded=0;orthogonalLoop=1;jettySize=auto;html=1;entryX=0.5;entryY=1;entryDx=0;entryDy=0;endArrow=block;endFill=0;" parent="DrAdFIftRKYHWb1Ylylo-1" source="DrAdFIftRKYHWb1Ylylo-4" target="DrAdFIftRKYHWb1Ylylo-32" edge="1">
          <mxGeometry relative="1" as="geometry" />
        </mxCell>
        <mxCell id="DrAdFIftRKYHWb1Ylylo-39" style="edgeStyle=orthogonalEdgeStyle;rounded=0;orthogonalLoop=1;jettySize=auto;html=1;endArrow=classic;endFill=1;" parent="DrAdFIftRKYHWb1Ylylo-1" source="DrAdFIftRKYHWb1Ylylo-4" target="DrAdFIftRKYHWb1Ylylo-13" edge="1">
          <mxGeometry relative="1" as="geometry" />
        </mxCell>
        <mxCell id="DrAdFIftRKYHWb1Ylylo-4" value="BankAccount" style="swimlane;fontStyle=1;align=center;verticalAlign=top;childLayout=stackLayout;horizontal=1;startSize=26;horizontalStack=0;resizeParent=1;resizeParentMax=0;resizeLast=0;collapsible=1;marginBottom=0;fillColor=none;" parent="DrAdFIftRKYHWb1Ylylo-1" vertex="1">
          <mxGeometry x="20" y="300" width="440" height="52" as="geometry" />
        </mxCell>
        <mxCell id="DrAdFIftRKYHWb1Ylylo-9" value="+ BankAccount(string accountNumber)" style="text;strokeColor=none;fillColor=none;align=left;verticalAlign=top;spacingLeft=4;spacingRight=4;overflow=hidden;rotatable=0;points=[[0,0.5],[1,0.5]];portConstraint=eastwest;" parent="DrAdFIftRKYHWb1Ylylo-4" vertex="1">
          <mxGeometry y="26" width="440" height="26" as="geometry" />
        </mxCell>
        <mxCell id="DrAdFIftRKYHWb1Ylylo-13" value="Transaction" style="swimlane;fontStyle=1;align=center;verticalAlign=top;childLayout=stackLayout;horizontal=1;startSize=26;horizontalStack=0;resizeParent=1;resizeParentMax=0;resizeLast=0;collapsible=1;marginBottom=0;fillColor=none;" parent="DrAdFIftRKYHWb1Ylylo-1" vertex="1">
          <mxGeometry x="640" y="40" width="300" height="190" as="geometry" />
        </mxCell>
        <mxCell id="DrAdFIftRKYHWb1Ylylo-14" value="+ Amount { get; } : decimal" style="text;strokeColor=none;fillColor=none;align=left;verticalAlign=top;spacingLeft=4;spacingRight=4;overflow=hidden;rotatable=0;points=[[0,0.5],[1,0.5]];portConstraint=eastwest;" parent="DrAdFIftRKYHWb1Ylylo-13" vertex="1">
          <mxGeometry y="26" width="300" height="26" as="geometry" />
        </mxCell>
        <mxCell id="DrAdFIftRKYHWb1Ylylo-15" value="+ DateOfTrans { get; } : DateTime" style="text;strokeColor=none;fillColor=none;align=left;verticalAlign=top;spacingLeft=4;spacingRight=4;overflow=hidden;rotatable=0;points=[[0,0.5],[1,0.5]];portConstraint=eastwest;" parent="DrAdFIftRKYHWb1Ylylo-13" vertex="1">
          <mxGeometry y="52" width="300" height="26" as="geometry" />
        </mxCell>
        <mxCell id="DrAdFIftRKYHWb1Ylylo-16" value="+ IsDeposit { get; } : bool" style="text;strokeColor=none;fillColor=none;align=left;verticalAlign=top;spacingLeft=4;spacingRight=4;overflow=hidden;rotatable=0;points=[[0,0.5],[1,0.5]];portConstraint=eastwest;" parent="DrAdFIftRKYHWb1Ylylo-13" vertex="1">
          <mxGeometry y="78" width="300" height="26" as="geometry" />
        </mxCell>
        <mxCell id="DrAdFIftRKYHWb1Ylylo-17" value="+ IsWithdraw { get; } : bool" style="text;strokeColor=none;fillColor=none;align=left;verticalAlign=top;spacingLeft=4;spacingRight=4;overflow=hidden;rotatable=0;points=[[0,0.5],[1,0.5]];portConstraint=eastwest;" parent="DrAdFIftRKYHWb1Ylylo-13" vertex="1">
          <mxGeometry y="104" width="300" height="26" as="geometry" />
        </mxCell>
        <mxCell id="DrAdFIftRKYHWb1Ylylo-18" value="+ TransactionType { get; } : TransactionType" style="text;align=left;verticalAlign=top;spacingLeft=4;spacingRight=4;overflow=hidden;rotatable=0;points=[[0,0.5],[1,0.5]];portConstraint=eastwest;" parent="DrAdFIftRKYHWb1Ylylo-13" vertex="1">
          <mxGeometry y="130" width="300" height="26" as="geometry" />
        </mxCell>
        <mxCell id="DrAdFIftRKYHWb1Ylylo-19" value="" style="line;strokeWidth=1;fillColor=none;align=left;verticalAlign=middle;spacingTop=-1;spacingLeft=3;spacingRight=3;rotatable=0;labelPosition=right;points=[];portConstraint=eastwest;" parent="DrAdFIftRKYHWb1Ylylo-13" vertex="1">
          <mxGeometry y="156" width="300" height="8" as="geometry" />
        </mxCell>
        <mxCell id="DrAdFIftRKYHWb1Ylylo-20" value="+ Transaction(decimal amount, TransactionType type)" style="text;strokeColor=none;fillColor=none;align=left;verticalAlign=top;spacingLeft=4;spacingRight=4;overflow=hidden;rotatable=0;points=[[0,0.5],[1,0.5]];portConstraint=eastwest;" parent="DrAdFIftRKYHWb1Ylylo-13" vertex="1">
          <mxGeometry y="164" width="300" height="26" as="geometry" />
        </mxCell>
        <mxCell id="DrAdFIftRKYHWb1Ylylo-21" value="&lt;&lt;enum&gt;&gt;&#xa;TransactionType" style="swimlane;fontStyle=1;childLayout=stackLayout;horizontal=1;startSize=26;fillColor=none;horizontalStack=0;resizeParent=1;resizeParentMax=0;resizeLast=0;collapsible=1;marginBottom=0;" parent="DrAdFIftRKYHWb1Ylylo-1" vertex="1">
          <mxGeometry x="690" y="410" width="140" height="78" as="geometry" />
        </mxCell>
        <mxCell id="DrAdFIftRKYHWb1Ylylo-22" value="Deposit" style="text;strokeColor=none;fillColor=none;align=left;verticalAlign=top;spacingLeft=4;spacingRight=4;overflow=hidden;rotatable=0;points=[[0,0.5],[1,0.5]];portConstraint=eastwest;" parent="DrAdFIftRKYHWb1Ylylo-21" vertex="1">
          <mxGeometry y="26" width="140" height="26" as="geometry" />
        </mxCell>
        <mxCell id="DrAdFIftRKYHWb1Ylylo-23" value="Withdraw" style="text;strokeColor=none;fillColor=none;align=left;verticalAlign=top;spacingLeft=4;spacingRight=4;overflow=hidden;rotatable=0;points=[[0,0.5],[1,0.5]];portConstraint=eastwest;" parent="DrAdFIftRKYHWb1Ylylo-21" vertex="1">
          <mxGeometry y="52" width="140" height="26" as="geometry" />
        </mxCell>
        <mxCell id="DrAdFIftRKYHWb1Ylylo-24" value="_transactions" style="text;html=1;align=center;verticalAlign=middle;resizable=0;points=[];autosize=1;" parent="DrAdFIftRKYHWb1Ylylo-1" vertex="1">
          <mxGeometry x="790" y="240" width="90" height="20" as="geometry" />
        </mxCell>
        <mxCell id="DrAdFIftRKYHWb1Ylylo-25" value="SavingsAccount" style="swimlane;fontStyle=1;align=center;verticalAlign=top;childLayout=stackLayout;horizontal=1;startSize=26;horizontalStack=0;resizeParent=1;resizeParentMax=0;resizeLast=0;collapsible=1;marginBottom=0;fillColor=none;" parent="DrAdFIftRKYHWb1Ylylo-1" vertex="1">
          <mxGeometry x="20" y="460" width="440" height="164" as="geometry" />
        </mxCell>
        <mxCell id="DrAdFIftRKYHWb1Ylylo-26" value="# WithdrawCost : decimal = 0.25M" style="text;strokeColor=none;fillColor=none;align=left;verticalAlign=top;spacingLeft=4;spacingRight=4;overflow=hidden;rotatable=0;points=[[0,0.5],[1,0.5]];portConstraint=eastwest;" parent="DrAdFIftRKYHWb1Ylylo-25" vertex="1">
          <mxGeometry y="26" width="440" height="26" as="geometry" />
        </mxCell>
        <mxCell id="DrAdFIftRKYHWb1Ylylo-27" value="+ InterestRate { get; } : decimal" style="text;strokeColor=none;fillColor=none;align=left;verticalAlign=top;spacingLeft=4;spacingRight=4;overflow=hidden;rotatable=0;points=[[0,0.5],[1,0.5]];portConstraint=eastwest;" parent="DrAdFIftRKYHWb1Ylylo-25" vertex="1">
          <mxGeometry y="52" width="440" height="26" as="geometry" />
        </mxCell>
        <mxCell id="DrAdFIftRKYHWb1Ylylo-28" value="" style="line;strokeWidth=1;fillColor=none;align=left;verticalAlign=middle;spacingTop=-1;spacingLeft=3;spacingRight=3;rotatable=0;labelPosition=right;points=[];portConstraint=eastwest;" parent="DrAdFIftRKYHWb1Ylylo-25" vertex="1">
          <mxGeometry y="78" width="440" height="8" as="geometry" />
        </mxCell>
        <mxCell id="DrAdFIftRKYHWb1Ylylo-29" value="+ SavingsAccount(string accountNumber, decimal interestRate)&#xa;" style="text;strokeColor=none;fillColor=none;align=left;verticalAlign=top;spacingLeft=4;spacingRight=4;overflow=hidden;rotatable=0;points=[[0,0.5],[1,0.5]];portConstraint=eastwest;" parent="DrAdFIftRKYHWb1Ylylo-25" vertex="1">
          <mxGeometry y="86" width="440" height="26" as="geometry" />
        </mxCell>
        <mxCell id="DrAdFIftRKYHWb1Ylylo-30" value="+ AddInterest(): void" style="text;strokeColor=none;fillColor=none;align=left;verticalAlign=top;spacingLeft=4;spacingRight=4;overflow=hidden;rotatable=0;points=[[0,0.5],[1,0.5]];portConstraint=eastwest;" parent="DrAdFIftRKYHWb1Ylylo-25" vertex="1">
          <mxGeometry y="112" width="440" height="26" as="geometry" />
        </mxCell>
        <mxCell id="DrAdFIftRKYHWb1Ylylo-31" value="+ Withdraw(decimal amount) : void" style="text;strokeColor=none;fillColor=none;align=left;verticalAlign=top;spacingLeft=4;spacingRight=4;overflow=hidden;rotatable=0;points=[[0,0.5],[1,0.5]];portConstraint=eastwest;" parent="DrAdFIftRKYHWb1Ylylo-25" vertex="1">
          <mxGeometry y="138" width="440" height="26" as="geometry" />
        </mxCell>
        <mxCell id="DrAdFIftRKYHWb1Ylylo-32" value="&lt;p style=&quot;margin: 0px ; margin-top: 4px ; text-align: center&quot;&gt;&lt;i&gt;&amp;lt;&amp;lt;interface&amp;gt;&amp;gt;&lt;/i&gt;&lt;br&gt;&lt;b&gt;IBankAccount&lt;/b&gt;&lt;/p&gt;&lt;hr size=&quot;1&quot;&gt;&lt;p style=&quot;margin: 0px ; margin-left: 4px&quot;&gt;+ AccountNumber { get; } : string&lt;br&gt;+ Balance { get; } : decimal&lt;/p&gt;&lt;p style=&quot;margin: 0px ; margin-left: 4px&quot;&gt;+ NumberOfTransactions { get; } : int&lt;/p&gt;&lt;hr size=&quot;1&quot;&gt;&lt;p style=&quot;margin: 0px ; margin-left: 4px&quot;&gt;+ Deposit(decimal amount) : void&lt;/p&gt;&lt;p style=&quot;margin: 0px ; margin-left: 4px&quot;&gt;+ Withdraw(decimal amount): void&lt;br&gt;+ GetTransactions(DateTime? from, DateTime? till): IEnumerable&amp;lt;Transaction&amp;gt;&lt;br&gt;&lt;/p&gt;" style="verticalAlign=top;align=left;overflow=fill;fontSize=12;fontFamily=Helvetica;html=1;fillColor=none;" parent="DrAdFIftRKYHWb1Ylylo-1" vertex="1">
          <mxGeometry x="20" y="40" width="440" height="150" as="geometry" />
        </mxCell>
      </root>
    </mxGraphModel>
  </diagram>
  <diagram name="Example 5" id="R1PfJKPa07slZrE5S6Kk">
    <mxGraphModel dx="928" dy="833" grid="1" gridSize="10" guides="1" tooltips="1" connect="1" arrows="1" fold="1" page="1" pageScale="1" pageWidth="1000" pageHeight="800" math="0" shadow="0">
      <root>
        <mxCell id="CUxYvzRzORAs6G5xI373-0" />
        <mxCell id="CUxYvzRzORAs6G5xI373-1" parent="CUxYvzRzORAs6G5xI373-0" />
        <mxCell id="CUxYvzRzORAs6G5xI373-2" style="edgeStyle=orthogonalEdgeStyle;rounded=0;orthogonalLoop=1;jettySize=auto;html=1;entryX=0.5;entryY=0;entryDx=0;entryDy=0;endArrow=none;endFill=0;startArrow=block;startFill=0;" parent="CUxYvzRzORAs6G5xI373-1" source="CUxYvzRzORAs6G5xI373-5" target="CUxYvzRzORAs6G5xI373-19" edge="1">
          <mxGeometry relative="1" as="geometry" />
        </mxCell>
        <mxCell id="CUxYvzRzORAs6G5xI373-3" style="edgeStyle=orthogonalEdgeStyle;rounded=0;orthogonalLoop=1;jettySize=auto;html=1;entryX=0.5;entryY=1;entryDx=0;entryDy=0;endArrow=block;endFill=0;" parent="CUxYvzRzORAs6G5xI373-1" source="CUxYvzRzORAs6G5xI373-5" target="CUxYvzRzORAs6G5xI373-26" edge="1">
          <mxGeometry relative="1" as="geometry" />
        </mxCell>
        <mxCell id="CUxYvzRzORAs6G5xI373-4" style="edgeStyle=orthogonalEdgeStyle;rounded=0;orthogonalLoop=1;jettySize=auto;html=1;endArrow=classic;endFill=1;" parent="CUxYvzRzORAs6G5xI373-1" source="CUxYvzRzORAs6G5xI373-5" target="CUxYvzRzORAs6G5xI373-7" edge="1">
          <mxGeometry relative="1" as="geometry" />
        </mxCell>
        <mxCell id="CUxYvzRzORAs6G5xI373-5" value="BankAccount" style="swimlane;fontStyle=1;align=center;verticalAlign=top;childLayout=stackLayout;horizontal=1;startSize=26;horizontalStack=0;resizeParent=1;resizeParentMax=0;resizeLast=0;collapsible=1;marginBottom=0;fillColor=none;" parent="CUxYvzRzORAs6G5xI373-1" vertex="1">
          <mxGeometry x="35" y="270" width="440" height="52" as="geometry" />
        </mxCell>
        <mxCell id="CUxYvzRzORAs6G5xI373-6" value="+ BankAccount(string accountNumber)" style="text;strokeColor=none;fillColor=none;align=left;verticalAlign=top;spacingLeft=4;spacingRight=4;overflow=hidden;rotatable=0;points=[[0,0.5],[1,0.5]];portConstraint=eastwest;" parent="CUxYvzRzORAs6G5xI373-5" vertex="1">
          <mxGeometry y="26" width="440" height="26" as="geometry" />
        </mxCell>
        <mxCell id="CUxYvzRzORAs6G5xI373-7" value="Transaction" style="swimlane;fontStyle=1;align=center;verticalAlign=top;childLayout=stackLayout;horizontal=1;startSize=26;horizontalStack=0;resizeParent=1;resizeParentMax=0;resizeLast=0;collapsible=1;marginBottom=0;fillColor=none;" parent="CUxYvzRzORAs6G5xI373-1" vertex="1">
          <mxGeometry x="640" y="40" width="300" height="190" as="geometry" />
        </mxCell>
        <mxCell id="CUxYvzRzORAs6G5xI373-8" value="+ Amount { get; } : decimal" style="text;strokeColor=none;fillColor=none;align=left;verticalAlign=top;spacingLeft=4;spacingRight=4;overflow=hidden;rotatable=0;points=[[0,0.5],[1,0.5]];portConstraint=eastwest;" parent="CUxYvzRzORAs6G5xI373-7" vertex="1">
          <mxGeometry y="26" width="300" height="26" as="geometry" />
        </mxCell>
        <mxCell id="CUxYvzRzORAs6G5xI373-9" value="+ DateOfTrans { get; } : DateTime" style="text;strokeColor=none;fillColor=none;align=left;verticalAlign=top;spacingLeft=4;spacingRight=4;overflow=hidden;rotatable=0;points=[[0,0.5],[1,0.5]];portConstraint=eastwest;" parent="CUxYvzRzORAs6G5xI373-7" vertex="1">
          <mxGeometry y="52" width="300" height="26" as="geometry" />
        </mxCell>
        <mxCell id="CUxYvzRzORAs6G5xI373-10" value="+ IsDeposit { get; } : bool" style="text;strokeColor=none;fillColor=none;align=left;verticalAlign=top;spacingLeft=4;spacingRight=4;overflow=hidden;rotatable=0;points=[[0,0.5],[1,0.5]];portConstraint=eastwest;" parent="CUxYvzRzORAs6G5xI373-7" vertex="1">
          <mxGeometry y="78" width="300" height="26" as="geometry" />
        </mxCell>
        <mxCell id="CUxYvzRzORAs6G5xI373-11" value="+ IsWithdraw { get; } : bool" style="text;strokeColor=none;fillColor=none;align=left;verticalAlign=top;spacingLeft=4;spacingRight=4;overflow=hidden;rotatable=0;points=[[0,0.5],[1,0.5]];portConstraint=eastwest;" parent="CUxYvzRzORAs6G5xI373-7" vertex="1">
          <mxGeometry y="104" width="300" height="26" as="geometry" />
        </mxCell>
        <mxCell id="CUxYvzRzORAs6G5xI373-12" value="+ TransactionType { get; } : TransactionType" style="text;align=left;verticalAlign=top;spacingLeft=4;spacingRight=4;overflow=hidden;rotatable=0;points=[[0,0.5],[1,0.5]];portConstraint=eastwest;" parent="CUxYvzRzORAs6G5xI373-7" vertex="1">
          <mxGeometry y="130" width="300" height="26" as="geometry" />
        </mxCell>
        <mxCell id="CUxYvzRzORAs6G5xI373-13" value="" style="line;strokeWidth=1;fillColor=none;align=left;verticalAlign=middle;spacingTop=-1;spacingLeft=3;spacingRight=3;rotatable=0;labelPosition=right;points=[];portConstraint=eastwest;" parent="CUxYvzRzORAs6G5xI373-7" vertex="1">
          <mxGeometry y="156" width="300" height="8" as="geometry" />
        </mxCell>
        <mxCell id="CUxYvzRzORAs6G5xI373-14" value="+ Transaction(decimal amount, TransactionType type)" style="text;strokeColor=none;fillColor=none;align=left;verticalAlign=top;spacingLeft=4;spacingRight=4;overflow=hidden;rotatable=0;points=[[0,0.5],[1,0.5]];portConstraint=eastwest;" parent="CUxYvzRzORAs6G5xI373-7" vertex="1">
          <mxGeometry y="164" width="300" height="26" as="geometry" />
        </mxCell>
        <mxCell id="CUxYvzRzORAs6G5xI373-15" value="&lt;&lt;enum&gt;&gt;&#xa;TransactionType" style="swimlane;fontStyle=1;childLayout=stackLayout;horizontal=1;startSize=26;fillColor=none;horizontalStack=0;resizeParent=1;resizeParentMax=0;resizeLast=0;collapsible=1;marginBottom=0;" parent="CUxYvzRzORAs6G5xI373-1" vertex="1">
          <mxGeometry x="690" y="361" width="140" height="78" as="geometry" />
        </mxCell>
        <mxCell id="CUxYvzRzORAs6G5xI373-16" value="Deposit" style="text;strokeColor=none;fillColor=none;align=left;verticalAlign=top;spacingLeft=4;spacingRight=4;overflow=hidden;rotatable=0;points=[[0,0.5],[1,0.5]];portConstraint=eastwest;" parent="CUxYvzRzORAs6G5xI373-15" vertex="1">
          <mxGeometry y="26" width="140" height="26" as="geometry" />
        </mxCell>
        <mxCell id="CUxYvzRzORAs6G5xI373-17" value="Withdraw" style="text;strokeColor=none;fillColor=none;align=left;verticalAlign=top;spacingLeft=4;spacingRight=4;overflow=hidden;rotatable=0;points=[[0,0.5],[1,0.5]];portConstraint=eastwest;" parent="CUxYvzRzORAs6G5xI373-15" vertex="1">
          <mxGeometry y="52" width="140" height="26" as="geometry" />
        </mxCell>
        <mxCell id="CUxYvzRzORAs6G5xI373-18" value="_transactions" style="text;html=1;align=center;verticalAlign=middle;resizable=0;points=[];autosize=1;" parent="CUxYvzRzORAs6G5xI373-1" vertex="1">
          <mxGeometry x="790" y="240" width="90" height="20" as="geometry" />
        </mxCell>
        <mxCell id="CUxYvzRzORAs6G5xI373-19" value="SavingsAccount" style="swimlane;fontStyle=1;align=center;verticalAlign=top;childLayout=stackLayout;horizontal=1;startSize=26;horizontalStack=0;resizeParent=1;resizeParentMax=0;resizeLast=0;collapsible=1;marginBottom=0;fillColor=none;" parent="CUxYvzRzORAs6G5xI373-1" vertex="1">
          <mxGeometry x="35" y="380" width="440" height="164" as="geometry" />
        </mxCell>
        <mxCell id="CUxYvzRzORAs6G5xI373-20" value="# WithdrawCost : decimal = 0.25M" style="text;strokeColor=none;fillColor=none;align=left;verticalAlign=top;spacingLeft=4;spacingRight=4;overflow=hidden;rotatable=0;points=[[0,0.5],[1,0.5]];portConstraint=eastwest;" parent="CUxYvzRzORAs6G5xI373-19" vertex="1">
          <mxGeometry y="26" width="440" height="26" as="geometry" />
        </mxCell>
        <mxCell id="CUxYvzRzORAs6G5xI373-21" value="+ InterestRate { get; } : decimal" style="text;strokeColor=none;fillColor=none;align=left;verticalAlign=top;spacingLeft=4;spacingRight=4;overflow=hidden;rotatable=0;points=[[0,0.5],[1,0.5]];portConstraint=eastwest;" parent="CUxYvzRzORAs6G5xI373-19" vertex="1">
          <mxGeometry y="52" width="440" height="26" as="geometry" />
        </mxCell>
        <mxCell id="CUxYvzRzORAs6G5xI373-22" value="" style="line;strokeWidth=1;fillColor=none;align=left;verticalAlign=middle;spacingTop=-1;spacingLeft=3;spacingRight=3;rotatable=0;labelPosition=right;points=[];portConstraint=eastwest;" parent="CUxYvzRzORAs6G5xI373-19" vertex="1">
          <mxGeometry y="78" width="440" height="8" as="geometry" />
        </mxCell>
        <mxCell id="CUxYvzRzORAs6G5xI373-23" value="+ SavingsAccount(string accountNumber, decimal interestRate)&#xa;" style="text;strokeColor=none;fillColor=none;align=left;verticalAlign=top;spacingLeft=4;spacingRight=4;overflow=hidden;rotatable=0;points=[[0,0.5],[1,0.5]];portConstraint=eastwest;" parent="CUxYvzRzORAs6G5xI373-19" vertex="1">
          <mxGeometry y="86" width="440" height="26" as="geometry" />
        </mxCell>
        <mxCell id="CUxYvzRzORAs6G5xI373-24" value="+ AddInterest(): void" style="text;strokeColor=none;fillColor=none;align=left;verticalAlign=top;spacingLeft=4;spacingRight=4;overflow=hidden;rotatable=0;points=[[0,0.5],[1,0.5]];portConstraint=eastwest;" parent="CUxYvzRzORAs6G5xI373-19" vertex="1">
          <mxGeometry y="112" width="440" height="26" as="geometry" />
        </mxCell>
        <mxCell id="CUxYvzRzORAs6G5xI373-25" value="+ Withdraw(decimal amount) : void" style="text;strokeColor=none;fillColor=none;align=left;verticalAlign=top;spacingLeft=4;spacingRight=4;overflow=hidden;rotatable=0;points=[[0,0.5],[1,0.5]];portConstraint=eastwest;" parent="CUxYvzRzORAs6G5xI373-19" vertex="1">
          <mxGeometry y="138" width="440" height="26" as="geometry" />
        </mxCell>
        <mxCell id="CUxYvzRzORAs6G5xI373-26" value="&lt;p style=&quot;margin: 0px ; margin-top: 4px ; text-align: center&quot;&gt;&lt;i&gt;&amp;lt;&amp;lt;interface&amp;gt;&amp;gt;&lt;/i&gt;&lt;br&gt;&lt;b&gt;IBankAccount&lt;/b&gt;&lt;/p&gt;&lt;hr size=&quot;1&quot;&gt;&lt;p style=&quot;margin: 0px ; margin-left: 4px&quot;&gt;+ AccountNumber { get; } : string&lt;br&gt;+ Balance { get; } : decimal&lt;/p&gt;&lt;p style=&quot;margin: 0px ; margin-left: 4px&quot;&gt;+ NumberOfTransactions { get; } : int&lt;/p&gt;&lt;hr size=&quot;1&quot;&gt;&lt;p style=&quot;margin: 0px ; margin-left: 4px&quot;&gt;+ Deposit(decimal amount) : void&lt;/p&gt;&lt;p style=&quot;margin: 0px ; margin-left: 4px&quot;&gt;+ Withdraw(decimal amount): void&lt;br&gt;+ GetTransactions(DateTime? from, DateTime? till): IEnumerable&amp;lt;Transaction&amp;gt;&lt;br&gt;&lt;/p&gt;" style="verticalAlign=top;align=left;overflow=fill;fontSize=12;fontFamily=Helvetica;html=1;fillColor=none;" parent="CUxYvzRzORAs6G5xI373-1" vertex="1">
          <mxGeometry x="20" y="40" width="470" height="180" as="geometry" />
        </mxCell>
      </root>
    </mxGraphModel>
  </diagram>
  <diagram name="Example 6" id="aZZ36X3AuwYT5cpMlk5o">
    <mxGraphModel dx="1114" dy="999" grid="1" gridSize="10" guides="1" tooltips="1" connect="1" arrows="1" fold="1" page="1" pageScale="1" pageWidth="1000" pageHeight="800" math="0" shadow="0">
      <root>
        <mxCell id="ms3iUwXM5Hd8X7-Yj4sL-0" />
        <mxCell id="ms3iUwXM5Hd8X7-Yj4sL-1" parent="ms3iUwXM5Hd8X7-Yj4sL-0" />
        <mxCell id="ms3iUwXM5Hd8X7-Yj4sL-2" style="edgeStyle=orthogonalEdgeStyle;rounded=0;orthogonalLoop=1;jettySize=auto;html=1;entryX=0.5;entryY=0;entryDx=0;entryDy=0;endArrow=none;endFill=0;startArrow=block;startFill=0;" parent="ms3iUwXM5Hd8X7-Yj4sL-1" source="ms3iUwXM5Hd8X7-Yj4sL-5" target="ms3iUwXM5Hd8X7-Yj4sL-19" edge="1">
          <mxGeometry relative="1" as="geometry" />
        </mxCell>
        <mxCell id="ms3iUwXM5Hd8X7-Yj4sL-3" style="edgeStyle=orthogonalEdgeStyle;rounded=0;orthogonalLoop=1;jettySize=auto;html=1;entryX=0.5;entryY=1;entryDx=0;entryDy=0;endArrow=block;endFill=0;" parent="ms3iUwXM5Hd8X7-Yj4sL-1" source="ms3iUwXM5Hd8X7-Yj4sL-5" target="ms3iUwXM5Hd8X7-Yj4sL-26" edge="1">
          <mxGeometry relative="1" as="geometry" />
        </mxCell>
        <mxCell id="ms3iUwXM5Hd8X7-Yj4sL-4" style="edgeStyle=orthogonalEdgeStyle;rounded=0;orthogonalLoop=1;jettySize=auto;html=1;endArrow=classic;endFill=1;" parent="ms3iUwXM5Hd8X7-Yj4sL-1" source="ms3iUwXM5Hd8X7-Yj4sL-5" target="ms3iUwXM5Hd8X7-Yj4sL-7" edge="1">
          <mxGeometry relative="1" as="geometry" />
        </mxCell>
        <mxCell id="ms3iUwXM5Hd8X7-Yj4sL-5" value="BankAccount" style="swimlane;fontStyle=1;align=center;verticalAlign=top;childLayout=stackLayout;horizontal=1;startSize=26;horizontalStack=0;resizeParent=1;resizeParentMax=0;resizeLast=0;collapsible=1;marginBottom=0;fillColor=none;" parent="ms3iUwXM5Hd8X7-Yj4sL-1" vertex="1">
          <mxGeometry x="35" y="270" width="440" height="52" as="geometry" />
        </mxCell>
        <mxCell id="ms3iUwXM5Hd8X7-Yj4sL-6" value="+ BankAccount(string accountNumber)" style="text;strokeColor=none;fillColor=none;align=left;verticalAlign=top;spacingLeft=4;spacingRight=4;overflow=hidden;rotatable=0;points=[[0,0.5],[1,0.5]];portConstraint=eastwest;" parent="ms3iUwXM5Hd8X7-Yj4sL-5" vertex="1">
          <mxGeometry y="26" width="440" height="26" as="geometry" />
        </mxCell>
        <mxCell id="ms3iUwXM5Hd8X7-Yj4sL-7" value="Transaction" style="swimlane;fontStyle=1;align=center;verticalAlign=top;childLayout=stackLayout;horizontal=1;startSize=26;horizontalStack=0;resizeParent=1;resizeParentMax=0;resizeLast=0;collapsible=1;marginBottom=0;fillColor=none;" parent="ms3iUwXM5Hd8X7-Yj4sL-1" vertex="1">
          <mxGeometry x="640" y="40" width="300" height="190" as="geometry" />
        </mxCell>
        <mxCell id="ms3iUwXM5Hd8X7-Yj4sL-8" value="+ Amount { get; } : decimal" style="text;strokeColor=none;fillColor=none;align=left;verticalAlign=top;spacingLeft=4;spacingRight=4;overflow=hidden;rotatable=0;points=[[0,0.5],[1,0.5]];portConstraint=eastwest;" parent="ms3iUwXM5Hd8X7-Yj4sL-7" vertex="1">
          <mxGeometry y="26" width="300" height="26" as="geometry" />
        </mxCell>
        <mxCell id="ms3iUwXM5Hd8X7-Yj4sL-9" value="+ DateOfTrans { get; } : DateTime" style="text;strokeColor=none;fillColor=none;align=left;verticalAlign=top;spacingLeft=4;spacingRight=4;overflow=hidden;rotatable=0;points=[[0,0.5],[1,0.5]];portConstraint=eastwest;" parent="ms3iUwXM5Hd8X7-Yj4sL-7" vertex="1">
          <mxGeometry y="52" width="300" height="26" as="geometry" />
        </mxCell>
        <mxCell id="ms3iUwXM5Hd8X7-Yj4sL-10" value="+ IsDeposit { get; } : bool" style="text;strokeColor=none;fillColor=none;align=left;verticalAlign=top;spacingLeft=4;spacingRight=4;overflow=hidden;rotatable=0;points=[[0,0.5],[1,0.5]];portConstraint=eastwest;" parent="ms3iUwXM5Hd8X7-Yj4sL-7" vertex="1">
          <mxGeometry y="78" width="300" height="26" as="geometry" />
        </mxCell>
        <mxCell id="ms3iUwXM5Hd8X7-Yj4sL-11" value="+ IsWithdraw { get; } : bool" style="text;strokeColor=none;fillColor=none;align=left;verticalAlign=top;spacingLeft=4;spacingRight=4;overflow=hidden;rotatable=0;points=[[0,0.5],[1,0.5]];portConstraint=eastwest;" parent="ms3iUwXM5Hd8X7-Yj4sL-7" vertex="1">
          <mxGeometry y="104" width="300" height="26" as="geometry" />
        </mxCell>
        <mxCell id="ms3iUwXM5Hd8X7-Yj4sL-12" value="+ TransactionType { get; } : TransactionType" style="text;align=left;verticalAlign=top;spacingLeft=4;spacingRight=4;overflow=hidden;rotatable=0;points=[[0,0.5],[1,0.5]];portConstraint=eastwest;" parent="ms3iUwXM5Hd8X7-Yj4sL-7" vertex="1">
          <mxGeometry y="130" width="300" height="26" as="geometry" />
        </mxCell>
        <mxCell id="ms3iUwXM5Hd8X7-Yj4sL-13" value="" style="line;strokeWidth=1;fillColor=none;align=left;verticalAlign=middle;spacingTop=-1;spacingLeft=3;spacingRight=3;rotatable=0;labelPosition=right;points=[];portConstraint=eastwest;" parent="ms3iUwXM5Hd8X7-Yj4sL-7" vertex="1">
          <mxGeometry y="156" width="300" height="8" as="geometry" />
        </mxCell>
        <mxCell id="ms3iUwXM5Hd8X7-Yj4sL-14" value="+ Transaction(decimal amount, TransactionType type)" style="text;strokeColor=none;fillColor=none;align=left;verticalAlign=top;spacingLeft=4;spacingRight=4;overflow=hidden;rotatable=0;points=[[0,0.5],[1,0.5]];portConstraint=eastwest;" parent="ms3iUwXM5Hd8X7-Yj4sL-7" vertex="1">
          <mxGeometry y="164" width="300" height="26" as="geometry" />
        </mxCell>
        <mxCell id="ms3iUwXM5Hd8X7-Yj4sL-15" value="&lt;&lt;enum&gt;&gt;&#xa;TransactionType" style="swimlane;fontStyle=1;childLayout=stackLayout;horizontal=1;startSize=26;fillColor=none;horizontalStack=0;resizeParent=1;resizeParentMax=0;resizeLast=0;collapsible=1;marginBottom=0;" parent="ms3iUwXM5Hd8X7-Yj4sL-1" vertex="1">
          <mxGeometry x="690" y="361" width="140" height="78" as="geometry" />
        </mxCell>
        <mxCell id="ms3iUwXM5Hd8X7-Yj4sL-16" value="Deposit" style="text;strokeColor=none;fillColor=none;align=left;verticalAlign=top;spacingLeft=4;spacingRight=4;overflow=hidden;rotatable=0;points=[[0,0.5],[1,0.5]];portConstraint=eastwest;" parent="ms3iUwXM5Hd8X7-Yj4sL-15" vertex="1">
          <mxGeometry y="26" width="140" height="26" as="geometry" />
        </mxCell>
        <mxCell id="ms3iUwXM5Hd8X7-Yj4sL-17" value="Withdraw" style="text;strokeColor=none;fillColor=none;align=left;verticalAlign=top;spacingLeft=4;spacingRight=4;overflow=hidden;rotatable=0;points=[[0,0.5],[1,0.5]];portConstraint=eastwest;" parent="ms3iUwXM5Hd8X7-Yj4sL-15" vertex="1">
          <mxGeometry y="52" width="140" height="26" as="geometry" />
        </mxCell>
        <mxCell id="ms3iUwXM5Hd8X7-Yj4sL-18" value="_transactions" style="text;html=1;align=center;verticalAlign=middle;resizable=0;points=[];autosize=1;" parent="ms3iUwXM5Hd8X7-Yj4sL-1" vertex="1">
          <mxGeometry x="790" y="240" width="90" height="20" as="geometry" />
        </mxCell>
        <mxCell id="ms3iUwXM5Hd8X7-Yj4sL-19" value="SavingsAccount" style="swimlane;fontStyle=1;align=center;verticalAlign=top;childLayout=stackLayout;horizontal=1;startSize=26;horizontalStack=0;resizeParent=1;resizeParentMax=0;resizeLast=0;collapsible=1;marginBottom=0;fillColor=none;" parent="ms3iUwXM5Hd8X7-Yj4sL-1" vertex="1">
          <mxGeometry x="35" y="380" width="440" height="164" as="geometry" />
        </mxCell>
        <mxCell id="ms3iUwXM5Hd8X7-Yj4sL-20" value="# WithdrawCost : decimal = 0.25M" style="text;strokeColor=none;fillColor=none;align=left;verticalAlign=top;spacingLeft=4;spacingRight=4;overflow=hidden;rotatable=0;points=[[0,0.5],[1,0.5]];portConstraint=eastwest;" parent="ms3iUwXM5Hd8X7-Yj4sL-19" vertex="1">
          <mxGeometry y="26" width="440" height="26" as="geometry" />
        </mxCell>
        <mxCell id="ms3iUwXM5Hd8X7-Yj4sL-21" value="+ InterestRate { get; } : decimal" style="text;strokeColor=none;fillColor=none;align=left;verticalAlign=top;spacingLeft=4;spacingRight=4;overflow=hidden;rotatable=0;points=[[0,0.5],[1,0.5]];portConstraint=eastwest;" parent="ms3iUwXM5Hd8X7-Yj4sL-19" vertex="1">
          <mxGeometry y="52" width="440" height="26" as="geometry" />
        </mxCell>
        <mxCell id="ms3iUwXM5Hd8X7-Yj4sL-22" value="" style="line;strokeWidth=1;fillColor=none;align=left;verticalAlign=middle;spacingTop=-1;spacingLeft=3;spacingRight=3;rotatable=0;labelPosition=right;points=[];portConstraint=eastwest;" parent="ms3iUwXM5Hd8X7-Yj4sL-19" vertex="1">
          <mxGeometry y="78" width="440" height="8" as="geometry" />
        </mxCell>
        <mxCell id="ms3iUwXM5Hd8X7-Yj4sL-23" value="+ SavingsAccount(string accountNumber, decimal interestRate)&#xa;" style="text;strokeColor=none;fillColor=none;align=left;verticalAlign=top;spacingLeft=4;spacingRight=4;overflow=hidden;rotatable=0;points=[[0,0.5],[1,0.5]];portConstraint=eastwest;" parent="ms3iUwXM5Hd8X7-Yj4sL-19" vertex="1">
          <mxGeometry y="86" width="440" height="26" as="geometry" />
        </mxCell>
        <mxCell id="ms3iUwXM5Hd8X7-Yj4sL-24" value="+ AddInterest(): void" style="text;strokeColor=none;fillColor=none;align=left;verticalAlign=top;spacingLeft=4;spacingRight=4;overflow=hidden;rotatable=0;points=[[0,0.5],[1,0.5]];portConstraint=eastwest;" parent="ms3iUwXM5Hd8X7-Yj4sL-19" vertex="1">
          <mxGeometry y="112" width="440" height="26" as="geometry" />
        </mxCell>
        <mxCell id="ms3iUwXM5Hd8X7-Yj4sL-25" value="+ Withdraw(decimal amount) : void" style="text;strokeColor=none;fillColor=none;align=left;verticalAlign=top;spacingLeft=4;spacingRight=4;overflow=hidden;rotatable=0;points=[[0,0.5],[1,0.5]];portConstraint=eastwest;" parent="ms3iUwXM5Hd8X7-Yj4sL-19" vertex="1">
          <mxGeometry y="138" width="440" height="26" as="geometry" />
        </mxCell>
        <mxCell id="ms3iUwXM5Hd8X7-Yj4sL-26" value="&lt;p style=&quot;margin: 0px ; margin-top: 4px ; text-align: center&quot;&gt;&lt;i&gt;&amp;lt;&amp;lt;interface&amp;gt;&amp;gt;&lt;/i&gt;&lt;br&gt;&lt;b&gt;IBankAccount&lt;/b&gt;&lt;/p&gt;&lt;hr size=&quot;1&quot;&gt;&lt;p style=&quot;margin: 0px ; margin-left: 4px&quot;&gt;+ AccountNumber { get; private set; } : string&lt;br&gt;+ Balance { get; } : decimal&lt;/p&gt;&lt;p style=&quot;margin: 0px ; margin-left: 4px&quot;&gt;+ NumberOfTransactions { get; } : int&lt;/p&gt;&lt;hr size=&quot;1&quot;&gt;&lt;p style=&quot;margin: 0px ; margin-left: 4px&quot;&gt;+ Deposit(decimal amount) : void&lt;/p&gt;&lt;p style=&quot;margin: 0px ; margin-left: 4px&quot;&gt;+ Withdraw(decimal amount): void&lt;br&gt;+ GetTransactions(DateTime? from, DateTime? till): IEnumerable&amp;lt;Transaction&amp;gt;&lt;br&gt;&lt;/p&gt;" style="verticalAlign=top;align=left;overflow=fill;fontSize=12;fontFamily=Helvetica;html=1;fillColor=none;" parent="ms3iUwXM5Hd8X7-Yj4sL-1" vertex="1">
          <mxGeometry x="20" y="40" width="470" height="180" as="geometry" />
        </mxCell>
      </root>
    </mxGraphModel>
  </diagram>
  <diagram id="TzKIDFqTj84VwOH08fBA" name="Collections">
    <mxGraphModel dx="1114" dy="999" grid="1" gridSize="10" guides="1" tooltips="1" connect="1" arrows="1" fold="1" page="1" pageScale="1" pageWidth="1000" pageHeight="400" math="0" shadow="0">
      <root>
        <mxCell id="z5Uov9JgKbaZ3x3_ZOwu-0" />
        <mxCell id="z5Uov9JgKbaZ3x3_ZOwu-1" parent="z5Uov9JgKbaZ3x3_ZOwu-0" />
        <mxCell id="z5Uov9JgKbaZ3x3_ZOwu-18" value="&lt;p style=&quot;margin: 0px ; margin-top: 4px ; text-align: center&quot;&gt;&lt;i&gt;&amp;lt;&amp;lt;interface&amp;gt;&amp;gt;&lt;/i&gt;&lt;br&gt;&lt;b&gt;IEnumerable&amp;lt;T&amp;gt;&lt;/b&gt;&lt;/p&gt;&lt;hr size=&quot;1&quot;&gt;&lt;p style=&quot;margin: 0px ; margin-left: 4px&quot;&gt;+ GetEnumerator(): IEnumerator&lt;/p&gt;" style="verticalAlign=top;align=left;overflow=fill;fontSize=12;fontFamily=Helvetica;html=1;fillColor=none;" parent="z5Uov9JgKbaZ3x3_ZOwu-1" vertex="1">
          <mxGeometry x="110" y="40" width="190" height="70" as="geometry" />
        </mxCell>
        <mxCell id="z5Uov9JgKbaZ3x3_ZOwu-20" style="edgeStyle=orthogonalEdgeStyle;rounded=0;orthogonalLoop=1;jettySize=auto;html=1;entryX=0.5;entryY=1;entryDx=0;entryDy=0;endArrow=block;endFill=0;" parent="z5Uov9JgKbaZ3x3_ZOwu-1" source="z5Uov9JgKbaZ3x3_ZOwu-19" target="z5Uov9JgKbaZ3x3_ZOwu-18" edge="1">
          <mxGeometry relative="1" as="geometry" />
        </mxCell>
        <mxCell id="z5Uov9JgKbaZ3x3_ZOwu-19" value="&lt;p style=&quot;margin: 0px ; margin-top: 4px ; text-align: center&quot;&gt;&lt;i&gt;&amp;lt;&amp;lt;interface&amp;gt;&amp;gt;&lt;/i&gt;&lt;br&gt;&lt;b&gt;ICollection&amp;lt;T&amp;gt;&lt;/b&gt;&lt;/p&gt;&lt;hr size=&quot;1&quot;&gt;&lt;p style=&quot;margin: 0px ; margin-left: 4px&quot;&gt;+ Count { get; } : int&lt;/p&gt;&lt;p style=&quot;margin: 0px ; margin-left: 4px&quot;&gt;+ IsReadOnly { get; } : bool&lt;/p&gt;" style="verticalAlign=top;align=left;overflow=fill;fontSize=12;fontFamily=Helvetica;html=1;fillColor=none;" parent="z5Uov9JgKbaZ3x3_ZOwu-1" vertex="1">
          <mxGeometry x="110" y="165" width="190" height="85" as="geometry" />
        </mxCell>
      </root>
    </mxGraphModel>
  </diagram>
  <diagram id="4EbnUWJPQ_qlsVRrALCs" name="Inheritance">
    <mxGraphModel dx="1114" dy="999" grid="1" gridSize="10" guides="1" tooltips="1" connect="1" arrows="1" fold="1" page="1" pageScale="1" pageWidth="1000" pageHeight="400" math="0" shadow="0">
      <root>
        <mxCell id="Ep1Y8cWuva6iWcH8TkLt-0" />
        <mxCell id="Ep1Y8cWuva6iWcH8TkLt-1" parent="Ep1Y8cWuva6iWcH8TkLt-0" />
      </root>
    </mxGraphModel>
  </diagram>
  <diagram id="TUqUxIdTu1OIp1HpXiyP" name="Collection interfaces">
    <mxGraphModel dx="1114" dy="999" grid="1" gridSize="10" guides="1" tooltips="1" connect="1" arrows="1" fold="1" page="1" pageScale="1" pageWidth="1200" pageHeight="800" math="0" shadow="0">
      <root>
        <mxCell id="pMbCmj0MDOpj989lXHBO-0" />
        <mxCell id="pMbCmj0MDOpj989lXHBO-1" parent="pMbCmj0MDOpj989lXHBO-0" />
        <mxCell id="pMbCmj0MDOpj989lXHBO-2" value="«interface»&lt;br&gt;&lt;b&gt;IEnumerable&lt;/b&gt;" style="html=1;" parent="pMbCmj0MDOpj989lXHBO-1" vertex="1">
          <mxGeometry x="100" y="120" width="110" height="50" as="geometry" />
        </mxCell>
        <mxCell id="pMbCmj0MDOpj989lXHBO-7" style="edgeStyle=orthogonalEdgeStyle;rounded=0;orthogonalLoop=1;jettySize=auto;html=1;endArrow=block;endFill=0;" parent="pMbCmj0MDOpj989lXHBO-1" source="pMbCmj0MDOpj989lXHBO-3" target="pMbCmj0MDOpj989lXHBO-2" edge="1">
          <mxGeometry relative="1" as="geometry" />
        </mxCell>
        <mxCell id="pMbCmj0MDOpj989lXHBO-3" value="«interface»&lt;br&gt;&lt;b&gt;ICollection&lt;/b&gt;" style="html=1;" parent="pMbCmj0MDOpj989lXHBO-1" vertex="1">
          <mxGeometry x="100" y="220" width="110" height="50" as="geometry" />
        </mxCell>
        <mxCell id="pMbCmj0MDOpj989lXHBO-8" style="edgeStyle=orthogonalEdgeStyle;rounded=0;orthogonalLoop=1;jettySize=auto;html=1;endArrow=block;endFill=0;" parent="pMbCmj0MDOpj989lXHBO-1" source="pMbCmj0MDOpj989lXHBO-5" target="pMbCmj0MDOpj989lXHBO-3" edge="1">
          <mxGeometry relative="1" as="geometry" />
        </mxCell>
        <mxCell id="pMbCmj0MDOpj989lXHBO-5" value="«interface»&lt;br&gt;&lt;b&gt;IList&lt;br&gt;&lt;/b&gt;" style="html=1;" parent="pMbCmj0MDOpj989lXHBO-1" vertex="1">
          <mxGeometry x="30" y="330" width="110" height="50" as="geometry" />
        </mxCell>
        <mxCell id="pMbCmj0MDOpj989lXHBO-10" style="edgeStyle=orthogonalEdgeStyle;rounded=0;orthogonalLoop=1;jettySize=auto;html=1;entryX=0.5;entryY=1;entryDx=0;entryDy=0;endArrow=block;endFill=0;" parent="pMbCmj0MDOpj989lXHBO-1" source="pMbCmj0MDOpj989lXHBO-6" target="pMbCmj0MDOpj989lXHBO-3" edge="1">
          <mxGeometry relative="1" as="geometry" />
        </mxCell>
        <mxCell id="pMbCmj0MDOpj989lXHBO-6" value="«interface»&lt;br&gt;&lt;b&gt;IDictionary&lt;/b&gt;" style="html=1;" parent="pMbCmj0MDOpj989lXHBO-1" vertex="1">
          <mxGeometry x="170" y="330" width="110" height="50" as="geometry" />
        </mxCell>
        <mxCell id="pMbCmj0MDOpj989lXHBO-18" style="edgeStyle=orthogonalEdgeStyle;rounded=0;orthogonalLoop=1;jettySize=auto;html=1;entryX=0.5;entryY=1;entryDx=0;entryDy=0;endArrow=block;endFill=0;" parent="pMbCmj0MDOpj989lXHBO-1" source="pMbCmj0MDOpj989lXHBO-11" target="pMbCmj0MDOpj989lXHBO-2" edge="1">
          <mxGeometry relative="1" as="geometry">
            <Array as="points">
              <mxPoint x="425" y="200" />
              <mxPoint x="155" y="200" />
            </Array>
          </mxGeometry>
        </mxCell>
        <mxCell id="pMbCmj0MDOpj989lXHBO-11" value="«interface»&lt;br&gt;&lt;b&gt;IEnumerable&amp;lt;T&amp;gt;&lt;/b&gt;" style="html=1;" parent="pMbCmj0MDOpj989lXHBO-1" vertex="1">
          <mxGeometry x="370" y="220" width="110" height="50" as="geometry" />
        </mxCell>
        <mxCell id="pMbCmj0MDOpj989lXHBO-12" style="edgeStyle=orthogonalEdgeStyle;rounded=0;orthogonalLoop=1;jettySize=auto;html=1;endArrow=block;endFill=0;" parent="pMbCmj0MDOpj989lXHBO-1" source="pMbCmj0MDOpj989lXHBO-13" target="pMbCmj0MDOpj989lXHBO-11" edge="1">
          <mxGeometry relative="1" as="geometry" />
        </mxCell>
        <mxCell id="pMbCmj0MDOpj989lXHBO-13" value="«interface»&lt;br&gt;&lt;b&gt;ICollection&amp;lt;T&amp;gt;&lt;/b&gt;" style="html=1;" parent="pMbCmj0MDOpj989lXHBO-1" vertex="1">
          <mxGeometry x="370" y="320" width="110" height="50" as="geometry" />
        </mxCell>
        <mxCell id="pMbCmj0MDOpj989lXHBO-28" style="edgeStyle=orthogonalEdgeStyle;rounded=0;orthogonalLoop=1;jettySize=auto;html=1;entryX=0.5;entryY=1;entryDx=0;entryDy=0;endArrow=block;endFill=0;" parent="pMbCmj0MDOpj989lXHBO-1" source="pMbCmj0MDOpj989lXHBO-15" target="pMbCmj0MDOpj989lXHBO-13" edge="1">
          <mxGeometry relative="1" as="geometry">
            <Array as="points">
              <mxPoint x="255" y="410" />
              <mxPoint x="425" y="410" />
            </Array>
          </mxGeometry>
        </mxCell>
        <mxCell id="pMbCmj0MDOpj989lXHBO-15" value="«interface»&lt;br&gt;&lt;b&gt;IList&amp;lt;T&amp;gt;&lt;br&gt;&lt;/b&gt;" style="html=1;" parent="pMbCmj0MDOpj989lXHBO-1" vertex="1">
          <mxGeometry x="200" y="430" width="110" height="50" as="geometry" />
        </mxCell>
        <mxCell id="pMbCmj0MDOpj989lXHBO-16" style="edgeStyle=orthogonalEdgeStyle;rounded=0;orthogonalLoop=1;jettySize=auto;html=1;entryX=0.5;entryY=1;entryDx=0;entryDy=0;endArrow=block;endFill=0;" parent="pMbCmj0MDOpj989lXHBO-1" source="pMbCmj0MDOpj989lXHBO-17" target="pMbCmj0MDOpj989lXHBO-13" edge="1">
          <mxGeometry relative="1" as="geometry" />
        </mxCell>
        <mxCell id="pMbCmj0MDOpj989lXHBO-17" value="«interface»&lt;br&gt;&lt;b&gt;IDictionary&amp;lt;TKey, TValue&amp;gt;&lt;/b&gt;" style="html=1;" parent="pMbCmj0MDOpj989lXHBO-1" vertex="1">
          <mxGeometry x="340" y="430" width="170" height="50" as="geometry" />
        </mxCell>
        <mxCell id="pMbCmj0MDOpj989lXHBO-26" style="edgeStyle=orthogonalEdgeStyle;rounded=0;orthogonalLoop=1;jettySize=auto;html=1;endArrow=block;endFill=0;" parent="pMbCmj0MDOpj989lXHBO-1" source="pMbCmj0MDOpj989lXHBO-19" target="pMbCmj0MDOpj989lXHBO-13" edge="1">
          <mxGeometry relative="1" as="geometry">
            <Array as="points">
              <mxPoint x="595" y="410" />
              <mxPoint x="425" y="410" />
            </Array>
          </mxGeometry>
        </mxCell>
        <mxCell id="pMbCmj0MDOpj989lXHBO-19" value="«interface»&lt;br&gt;&lt;b&gt;ISet&amp;lt;T&amp;gt;&lt;br&gt;&lt;/b&gt;" style="html=1;" parent="pMbCmj0MDOpj989lXHBO-1" vertex="1">
          <mxGeometry x="540" y="430" width="110" height="50" as="geometry" />
        </mxCell>
        <mxCell id="pMbCmj0MDOpj989lXHBO-24" style="edgeStyle=orthogonalEdgeStyle;rounded=0;orthogonalLoop=1;jettySize=auto;html=1;entryX=0.5;entryY=1;entryDx=0;entryDy=0;endArrow=block;endFill=0;" parent="pMbCmj0MDOpj989lXHBO-1" source="pMbCmj0MDOpj989lXHBO-22" target="pMbCmj0MDOpj989lXHBO-11" edge="1">
          <mxGeometry relative="1" as="geometry">
            <Array as="points">
              <mxPoint x="850" y="290" />
              <mxPoint x="425" y="290" />
            </Array>
          </mxGeometry>
        </mxCell>
        <mxCell id="pMbCmj0MDOpj989lXHBO-22" value="«interface»&lt;br&gt;&lt;b&gt;IReadOnlyCollection&amp;lt;T&amp;gt;&lt;/b&gt;" style="html=1;" parent="pMbCmj0MDOpj989lXHBO-1" vertex="1">
          <mxGeometry x="770" y="320" width="160" height="50" as="geometry" />
        </mxCell>
        <mxCell id="pMbCmj0MDOpj989lXHBO-36" style="edgeStyle=orthogonalEdgeStyle;rounded=0;orthogonalLoop=1;jettySize=auto;html=1;endArrow=block;endFill=0;" parent="pMbCmj0MDOpj989lXHBO-1" source="pMbCmj0MDOpj989lXHBO-29" target="pMbCmj0MDOpj989lXHBO-22" edge="1">
          <mxGeometry relative="1" as="geometry" />
        </mxCell>
        <mxCell id="pMbCmj0MDOpj989lXHBO-29" value="«interface»&lt;br&gt;&lt;b&gt;IReadOnlyList&amp;lt;T&amp;gt;&lt;/b&gt;" style="html=1;" parent="pMbCmj0MDOpj989lXHBO-1" vertex="1">
          <mxGeometry x="680" y="430" width="160" height="50" as="geometry" />
        </mxCell>
        <mxCell id="pMbCmj0MDOpj989lXHBO-34" style="edgeStyle=orthogonalEdgeStyle;rounded=0;orthogonalLoop=1;jettySize=auto;html=1;endArrow=block;endFill=0;" parent="pMbCmj0MDOpj989lXHBO-1" source="pMbCmj0MDOpj989lXHBO-30" target="pMbCmj0MDOpj989lXHBO-22" edge="1">
          <mxGeometry relative="1" as="geometry" />
        </mxCell>
        <mxCell id="pMbCmj0MDOpj989lXHBO-30" value="«interface»&lt;br&gt;&lt;b&gt;IReadOnlyDictionary&lt;br&gt;&amp;lt;TKey, TValue&amp;gt;&lt;/b&gt;" style="html=1;" parent="pMbCmj0MDOpj989lXHBO-1" vertex="1">
          <mxGeometry x="870" y="430" width="170" height="50" as="geometry" />
        </mxCell>
        <mxCell id="pMbCmj0MDOpj989lXHBO-42" style="edgeStyle=orthogonalEdgeStyle;rounded=0;orthogonalLoop=1;jettySize=auto;html=1;endArrow=block;endFill=0;" parent="pMbCmj0MDOpj989lXHBO-1" source="pMbCmj0MDOpj989lXHBO-44" target="pMbCmj0MDOpj989lXHBO-46" edge="1">
          <mxGeometry relative="1" as="geometry" />
        </mxCell>
        <mxCell id="pMbCmj0MDOpj989lXHBO-43" style="edgeStyle=orthogonalEdgeStyle;rounded=0;orthogonalLoop=1;jettySize=auto;html=1;endArrow=block;endFill=0;" parent="pMbCmj0MDOpj989lXHBO-1" source="pMbCmj0MDOpj989lXHBO-44" target="pMbCmj0MDOpj989lXHBO-45" edge="1">
          <mxGeometry relative="1" as="geometry" />
        </mxCell>
        <mxCell id="pMbCmj0MDOpj989lXHBO-44" value="«interface»&lt;br&gt;&lt;b&gt;IEnumerator&amp;lt;T&amp;gt;&lt;/b&gt;" style="html=1;" parent="pMbCmj0MDOpj989lXHBO-1" vertex="1">
          <mxGeometry x="500" y="650" width="110" height="50" as="geometry" />
        </mxCell>
        <mxCell id="pMbCmj0MDOpj989lXHBO-45" value="«interface»&lt;br&gt;&lt;b&gt;IDisposable&lt;/b&gt;" style="html=1;" parent="pMbCmj0MDOpj989lXHBO-1" vertex="1">
          <mxGeometry x="580" y="560" width="110" height="50" as="geometry" />
        </mxCell>
        <mxCell id="pMbCmj0MDOpj989lXHBO-46" value="«interface»&lt;br&gt;&lt;b&gt;IEnumerator&lt;/b&gt;" style="html=1;" parent="pMbCmj0MDOpj989lXHBO-1" vertex="1">
          <mxGeometry x="410" y="560" width="110" height="50" as="geometry" />
        </mxCell>
      </root>
    </mxGraphModel>
  </diagram>
</mxfile>
